<?xml version="1.0" standalone="no"?>
<!DOCTYPE svg PUBLIC "-//W3C//DTD SVG 20010904//EN"
 "http://www.w3.org/TR/2001/REC-SVG-20010904/DTD/svg10.dtd">
<svg version="1.0" xmlns="http://www.w3.org/2000/svg"
 width="1154.000000pt" height="306.000000pt" viewBox="0 0 1154.000000 306.000000"
 preserveAspectRatio="xMidYMid meet">

<g transform="translate(0.000000,306.000000) scale(0.100000,-0.100000)"
fill="#1e40af" stroke="none">
<path d="M1755 3025 c-22 -8 -42 -15 -45 -15 -2 0 -254 -249 -558 -552 -445
-444 -553 -547 -548 -523 35 187 47 303 37 350 -38 168 -254 222 -368 92 -17
-19 -36 -50 -41 -69 -6 -18 -54 -307 -107 -641 -95 -603 -99 -647 -73 -702 18
-36 862 -876 900 -896 54 -28 115 -34 165 -16 23 8 189 105 370 217 l328 203
222 221 c230 228 253 259 253 335 0 94 -77 190 -165 209 -63 13 -123 2 -174
-31 -28 -19 -41 -23 -50 -14 -19 19 -13 31 49 92 73 72 95 123 87 199 -9 93
-67 162 -157 186 -86 23 -165 -7 -254 -99 -48 -49 -50 -50 -64 -30 -14 20 -9
26 76 113 99 99 122 140 122 213 -1 115 -96 213 -207 213 -80 0 -112 -18 -217
-120 -97 -95 -102 -98 -115 -78 -12 19 13 47 392 427 433 434 427 426 427 525
0 85 -71 174 -156 195 -55 14 -80 13 -129 -4z m-1012 -1657 c-144 -144 -190
-185 -200 -176 -7 6 -13 15 -13 22 0 6 82 93 182 193 173 173 183 182 201 166
17 -16 9 -26 -170 -205z m340 -340 c-144 -144 -190 -185 -200 -176 -7 6 -13
15 -13 22 0 6 82 93 182 193 173 173 183 182 201 166 17 -16 9 -26 -170 -205z
m340 -340 c-144 -144 -190 -185 -200 -176 -7 6 -13 15 -13 22 0 6 82 93 182
193 173 173 183 182 201 166 17 -16 9 -26 -170 -205z"/>
<path d="M5205 2636 c-70 -22 -120 -53 -164 -101 -68 -74 -83 -118 -89 -266
l-5 -128 -121 -3 -121 -3 0 -100 0 -100 123 -3 122 -3 0 -549 0 -550 125 0
125 0 0 550 0 550 220 0 220 0 2 -547 3 -548 125 0 125 0 3 547 2 547 143 3
142 3 0 100 0 100 -142 3 -143 3 0 90 c0 140 33 187 140 203 25 3 66 2 93 -3
27 -5 50 -5 53 0 12 20 54 180 49 189 -20 33 -265 41 -349 11 -108 -38 -187
-113 -222 -213 -8 -23 -17 -95 -21 -160 l-6 -118 -220 0 -219 0 4 93 c6 153
53 203 183 200 38 -1 78 -3 88 -5 16 -2 24 13 48 92 15 52 29 96 29 97 0 1
-23 9 -52 18 -63 18 -236 19 -293 1z"/>
<path d="M6387 2619 c-81 -43 -98 -160 -33 -225 125 -125 339 13 257 166 -38
73 -144 101 -224 59z"/>
<path d="M7357 2619 c-81 -43 -98 -160 -33 -225 121 -121 322 0 260 155 -32
81 -142 115 -227 70z"/>
<path d="M3757 2498 c-28 -80 -42 -120 -182 -513 -53 -148 -125 -351 -160
-450 -35 -99 -82 -232 -105 -295 -23 -63 -48 -133 -55 -155 -7 -22 -29 -84
-49 -139 -20 -54 -36 -102 -36 -107 0 -15 266 -11 277 4 5 6 20 44 33 82 12
39 45 136 72 217 l50 148 347 0 347 0 48 -138 c26 -75 62 -177 80 -227 l31
-90 138 -3 c114 -2 137 0 137 12 0 8 -13 50 -29 93 -16 43 -50 137 -76 208
-25 72 -52 146 -60 165 -8 19 -52 141 -99 270 -46 129 -123 343 -171 475 -47
132 -109 302 -137 378 l-51 137 -162 0 -163 0 -25 -72z m253 -349 c31 -107 88
-289 128 -406 40 -116 72 -216 72 -222 0 -8 -82 -11 -265 -11 -146 0 -265 2
-265 4 0 2 31 97 69 212 64 191 138 438 172 572 7 29 17 51 23 49 5 -2 35 -91
66 -198z"/>
<path d="M6830 1700 l0 -870 125 0 125 0 0 870 0 870 -125 0 -125 0 0 -870z"/>
<path d="M7730 2460 l0 -110 273 -2 272 -3 3 -757 2 -758 130 0 130 0 0 760 0
760 270 0 271 0 -3 108 -3 107 -672 3 -673 2 0 -110z"/>
<path d="M9383 2130 c-139 -36 -236 -102 -303 -204 -52 -79 -51 -92 3 -106 23
-6 65 -18 94 -26 76 -21 88 -18 121 26 66 90 141 124 272 125 82 0 102 -4 144
-25 80 -41 131 -145 110 -227 -13 -52 -56 -72 -197 -88 -337 -40 -468 -81
-554 -173 -64 -68 -90 -180 -73 -303 27 -187 164 -299 395 -324 75 -8 201 17
268 53 46 24 122 97 144 136 20 37 33 6 33 -80 l0 -84 120 0 120 0 0 463 c0
492 -5 548 -50 637 -50 97 -167 177 -301 205 -96 20 -256 18 -346 -5z m447
-770 c0 -116 -20 -183 -74 -246 -117 -137 -397 -147 -485 -18 -54 78 -31 198
47 248 48 30 133 53 245 66 93 12 213 37 236 50 9 4 19 6 23 4 5 -3 8 -50 8
-104z"/>
<path d="M10823 2135 c-92 -28 -160 -84 -219 -177 -15 -23 -29 -37 -34 -32 -5
5 -11 54 -12 109 l-3 100 -120 0 -120 0 0 -895 0 -895 123 -3 122 -3 0 345 c0
190 4 347 8 350 5 3 30 -24 56 -59 84 -110 162 -153 296 -162 203 -13 365 67
469 232 78 124 111 252 111 435 0 345 -142 578 -399 654 -66 19 -218 20 -278
1z m183 -210 c113 -33 197 -150 228 -314 21 -107 20 -156 -3 -268 -43 -209
-159 -323 -330 -323 -82 0 -143 24 -206 82 -91 83 -135 206 -135 376 0 245 88
403 250 453 42 13 144 10 196 -6z"/>
<path d="M6349 2136 c-2 -2 -3 -297 -1 -655 l2 -651 120 0 120 0 0 655 0 655
-118 0 c-65 0 -121 -2 -123 -4z"/>
<path d="M7320 2135 c0 -3 0 -296 0 -652 l0 -648 120 -3 120 -3 0 656 0 655
-120 0 c-66 0 -120 -2 -120 -5z"/>
</g>
</svg>
